<svg width="34" height="34" viewBox="0 0 34 34" fill="none" xmlns="http://www.w3.org/2000/svg">
<path d="M18.9804 1.54584C18.464 -0.51528 15.5381 -0.51528 15.0196 1.54584L14.8688 2.15355C14.7805 2.50672 14.5993 2.82983 14.344 3.08936C14.0888 3.34889 13.7687 3.53537 13.417 3.62947C13.0654 3.72356 12.6949 3.72184 12.3442 3.62447C11.9934 3.5271 11.6751 3.33764 11.4222 3.07575L10.9866 2.6274C9.50984 1.09962 6.97488 2.56365 7.55922 4.60565L7.7292 5.20911C7.82909 5.55875 7.8337 5.92873 7.74256 6.28075C7.65142 6.63277 7.46783 6.95403 7.21082 7.21126C6.95381 7.46849 6.6327 7.65234 6.28076 7.74378C5.92882 7.83522 5.55883 7.83092 5.20911 7.73133L4.60565 7.55922C2.56578 6.97488 1.09962 9.50984 2.6274 10.9866L3.07575 11.4222C3.33764 11.6751 3.5271 11.9934 3.62447 12.3442C3.72184 12.6949 3.72356 13.0654 3.62947 13.417C3.53537 13.7687 3.34889 14.0888 3.08936 14.344C2.82983 14.5993 2.50672 14.7805 2.15355 14.8688L1.54584 15.0196C-0.51528 15.536 -0.51528 18.4619 1.54584 18.9804L2.15355 19.1312C2.50672 19.2195 2.82983 19.4007 3.08936 19.656C3.34889 19.9112 3.53537 20.2313 3.62947 20.583C3.72356 20.9346 3.72184 21.3051 3.62447 21.6558C3.5271 22.0066 3.33764 22.3249 3.07575 22.5778L2.6274 23.0134C1.09962 24.4902 2.56365 27.0251 4.60565 26.4408L5.20911 26.2708C5.55897 26.1707 5.92923 26.1661 6.28149 26.2573C6.63376 26.3485 6.95522 26.5323 7.21252 26.7896C7.46983 27.0469 7.65363 27.3684 7.74485 27.7206C7.83607 28.0729 7.83141 28.4432 7.73133 28.793L7.55922 29.3943C6.97488 31.4342 9.50984 32.9004 10.9866 31.3726L11.4222 30.9243C11.6751 30.6624 11.9934 30.4729 12.3442 30.3755C12.6949 30.2782 13.0654 30.2764 13.417 30.3705C13.7687 30.4646 14.0888 30.6511 14.344 30.9106C14.5993 31.1702 14.7805 31.4933 14.8688 31.8464L15.0196 32.4542C15.536 34.5153 18.4619 34.5153 18.9804 32.4542L19.1312 31.8464C19.2195 31.4933 19.4007 31.1702 19.656 30.9106C19.9112 30.6511 20.2313 30.4646 20.583 30.3705C20.9346 30.2764 21.3051 30.2782 21.6558 30.3755C22.0066 30.4729 22.3249 30.6624 22.5778 30.9243L23.0134 31.3726C24.4902 32.9004 27.0251 31.4363 26.4408 29.3943L26.2708 28.7909C26.1707 28.441 26.1661 28.0708 26.2573 27.7185C26.3485 27.3662 26.5323 27.0448 26.7896 26.7875C27.0469 26.5302 27.3684 26.3464 27.7206 26.2551C28.0729 26.1639 28.4432 26.1686 28.793 26.2687L29.3943 26.4408C31.4342 27.0251 32.9004 24.4902 31.3726 23.0134L30.9243 22.5778C30.6624 22.3249 30.4729 22.0066 30.3755 21.6558C30.2782 21.3051 30.2764 20.9346 30.3705 20.583C30.4646 20.2313 30.6511 19.9112 30.9106 19.656C31.1702 19.4007 31.4933 19.2195 31.8464 19.1312L32.4542 18.9804C34.5153 18.464 34.5153 15.5381 32.4542 15.0196L31.8464 14.8688C31.4933 14.7805 31.1702 14.5993 30.9106 14.344C30.6511 14.0888 30.4646 13.7687 30.3705 13.417C30.2764 13.0654 30.2782 12.6949 30.3755 12.3442C30.4729 11.9934 30.6624 11.6751 30.9243 11.4222L31.3726 10.9866C32.9004 9.50984 31.4363 6.97488 29.3943 7.55922L28.7909 7.7292C28.4412 7.82909 28.0713 7.8337 27.7192 7.74256C27.3672 7.65142 27.046 7.46783 26.7887 7.21082C26.5315 6.95381 26.3477 6.6327 26.2562 6.28076C26.1648 5.92882 26.1691 5.55883 26.2687 5.20911L26.4408 4.60565C27.0251 2.56578 24.4902 1.09962 23.0134 2.6274L22.5778 3.07575C22.3249 3.33764 22.0066 3.5271 21.6558 3.62447C21.3051 3.72184 20.9346 3.72356 20.583 3.62947C20.2313 3.53537 19.9112 3.34889 19.656 3.08936C19.4007 2.82983 19.2195 2.50672 19.1312 2.15355L18.9804 1.54584ZM17 27.6201C15.5929 27.64 14.1958 27.3779 12.89 26.8532C11.5842 26.3285 10.3957 25.5494 9.39355 24.5614C8.39143 23.5734 7.59568 22.396 7.05254 21.0977C6.50939 19.7995 6.2297 18.4062 6.2297 16.9989C6.2297 15.5916 6.50939 14.1984 7.05254 12.9001C7.59568 11.6019 8.39143 10.4245 9.39355 9.43648C10.3957 8.44844 11.5842 7.66942 12.89 7.14469C14.1958 6.61997 15.5929 6.36001 17 6.37991C19.8166 6.37991 22.5179 7.49881 24.5095 9.49047C26.5012 11.4821 27.6201 14.1834 27.6201 17C27.6201 19.8166 26.5012 22.5179 24.5095 24.5095C22.5179 26.5012 19.8166 27.6201 17 27.6201Z" fill="current"/>
</svg>
