<svg width="90" height="90" viewBox="0 0 90 90" fill="none" xmlns="http://www.w3.org/2000/svg">
<mask id="mask0_331_11" style="mask-type:alpha" maskUnits="userSpaceOnUse" x="45" y="2" width="42" height="87">
<rect x="45" y="2" width="42" height="86.8" fill="current"/>
</mask>
<g mask="url(#mask0_331_11)">
<path d="M49.8927 7.21904C48.617 2.12686 41.3882 2.12686 40.1073 7.21904L39.7346 8.72044C39.5165 9.59298 39.0689 10.3913 38.4382 11.0324C37.8075 11.6736 37.0168 12.1344 36.148 12.3668C35.2791 12.5993 34.3639 12.595 33.4973 12.3545C32.6307 12.1139 31.8443 11.6458 31.2196 10.9988L30.1434 9.89112C26.4949 6.11661 20.232 9.73363 21.6757 14.7786L22.0957 16.2695C22.3425 17.1333 22.3539 18.0474 22.1287 18.9171C21.9035 19.7867 21.4499 20.5804 20.815 21.2159C20.18 21.8515 19.3867 22.3057 18.5172 22.5316C17.6477 22.7575 16.7336 22.7469 15.8696 22.5008L14.3787 22.0756C9.33898 20.6319 5.71671 26.8948 9.49122 30.5433L10.5989 31.6195C11.2459 32.2442 11.714 33.0306 11.9546 33.8972C12.1951 34.7639 12.1994 35.679 11.9669 36.5479C11.7345 37.4167 11.2737 38.2074 10.6325 38.8381C9.99135 39.4688 9.19308 39.9164 8.32054 40.1345L6.81914 40.5072C1.72695 41.7829 1.72695 49.0117 6.81914 50.2926L8.32054 50.6653C9.19308 50.8834 9.99135 51.331 10.6325 51.9617C11.2737 52.5924 11.7345 53.3831 11.9669 54.252C12.1994 55.1208 12.1951 56.036 11.9546 56.9026C11.714 57.7692 11.2459 58.5556 10.5989 59.1803L9.49122 60.2565C5.71671 63.905 9.33373 70.1679 14.3787 68.7242L15.8696 68.3042C16.7339 68.057 17.6487 68.0454 18.519 68.2708C19.3893 68.4962 20.1835 68.9503 20.8192 69.586C21.4549 70.2217 21.909 71.0159 22.1343 71.8862C22.3597 72.7565 22.3482 73.6712 22.1009 74.5356L21.6757 76.0212C20.232 81.0609 26.4949 84.6832 30.1434 80.9087L31.2196 79.801C31.8443 79.154 32.6307 78.6859 33.4973 78.4453C34.3639 78.2048 35.2791 78.2005 36.148 78.433C37.0168 78.6655 37.8075 79.1262 38.4382 79.7674C39.0689 80.4086 39.5165 81.2068 39.7346 82.0794L40.1073 83.5808C41.383 88.673 48.6118 88.673 49.8927 83.5808L50.2654 82.0794C50.4835 81.2068 50.9311 80.4086 51.5618 79.7674C52.1925 79.1262 52.9832 78.6655 53.8521 78.433C54.7209 78.2005 55.6361 78.2048 56.5027 78.4453C57.3693 78.6859 58.1557 79.154 58.7804 79.801L59.8566 80.9087C63.5051 84.6832 69.768 81.0662 68.3243 76.0212L67.9043 74.5303C67.6571 73.666 67.6455 72.7512 67.8709 71.8809C68.0963 71.0106 68.5504 70.2164 69.1861 69.5807C69.8218 68.945 70.616 68.4909 71.4863 68.2656C72.3566 68.0402 73.2713 68.0517 74.1357 68.299L75.6213 68.7242C80.661 70.1679 84.2833 63.905 80.5088 60.2565L79.4011 59.1803C78.7541 58.5556 78.286 57.7692 78.0454 56.9026C77.8049 56.036 77.8006 55.1208 78.0331 54.252C78.2655 53.3831 78.7263 52.5924 79.3675 51.9617C80.0087 51.331 80.8069 50.8834 81.6795 50.6653L83.1809 50.2926C88.273 49.0169 88.273 41.7881 83.1809 40.5072L81.6795 40.1345C80.8069 39.9164 80.0087 39.4688 79.3675 38.8381C78.7263 38.2074 78.2655 37.4167 78.0331 36.5479C77.8006 35.679 77.8049 34.7639 78.0454 33.8972C78.286 33.0306 78.7541 32.2442 79.4011 31.6195L80.5088 30.5433C84.2833 26.8948 80.6663 20.6319 75.6213 22.0756L74.1304 22.4956C73.2666 22.7424 72.3525 22.7538 71.4829 22.5286C70.6132 22.3034 69.8195 21.8498 69.184 21.2149C68.5484 20.5799 68.0942 19.7866 67.8683 18.9171C67.6424 18.0476 67.653 17.1335 67.8991 16.2695L68.3243 14.7786C69.768 9.73888 63.5051 6.11661 59.8566 9.89112L58.7804 10.9988C58.1557 11.6458 57.3693 12.1139 56.5027 12.3545C55.6361 12.595 54.7209 12.5993 53.8521 12.3668C52.9832 12.1344 52.1925 11.6736 51.5618 11.0324C50.9311 10.3913 50.4835 9.59298 50.2654 8.72044L49.8927 7.21904ZM45 71.6325C41.5235 71.6817 38.0719 71.0394 34.8458 69.7431C31.6197 68.4467 28.6834 66.522 26.2076 64.081C23.7318 61.64 21.7658 58.7312 20.4239 55.5237C19.082 52.3163 18.391 48.8741 18.391 45.3973C18.391 41.9204 19.082 38.4783 20.4239 35.2708C21.7658 32.0634 23.7318 29.1546 26.2076 26.7136C28.6834 24.2725 31.6197 22.3479 34.8458 21.0515C38.0719 19.7551 41.5235 21.0023 45 21.0515C51.9587 21.0515 56.8794 22.9793 61.8 27.8999C66.7206 32.8205 68.3243 38.4386 68.3243 45.3973C68.3243 52.356 65.5599 59.0297 60.6394 63.9502C55.7188 68.8708 51.9587 68.7242 45 68.7242V71.6325Z" fill="crrent
"/>
</g>
</svg>
