<svg width="413" height="86" viewBox="0 0 413 86" fill="none" xmlns="http://www.w3.org/2000/svg">
<path d="M7.94884 73H44.9288V62.68H19.5588V12.8H7.94884V73ZM10.0988 66.808V14.864H12.6788V64.744H42.7788V66.808H10.0988ZM14.8288 62.68V14.864H17.4088V62.68H14.8288ZM10.0988 70.936V68.872H42.7788V70.936H10.0988ZM77.7647 73.86C95.0507 73.86 108.381 60.788 108.381 42.9C108.381 25.012 95.0507 11.94 77.7647 11.94C60.4787 11.94 47.1487 25.012 47.1487 42.9C47.1487 60.788 60.4787 73.86 77.7647 73.86ZM77.7647 71.796C61.6827 71.796 49.2987 59.584 49.2987 42.9C49.2987 26.216 61.6827 14.004 77.7647 14.004C93.8467 14.004 106.231 26.216 106.231 42.9C106.231 50.984 103.307 58.122 98.4907 63.196L96.8567 61.476C101.157 56.746 103.651 50.21 103.651 42.9C103.651 27.592 92.6427 16.068 77.7647 16.068C62.8867 16.068 51.8787 27.592 51.8787 42.9C51.8787 58.208 62.8867 69.732 77.7647 69.732C84.7307 69.732 90.8367 67.238 95.3947 62.938L97.0287 64.572C92.0407 69.13 85.3327 71.796 77.7647 71.796ZM77.7647 67.668C64.1767 67.668 54.0287 56.918 54.0287 42.9C54.0287 36.192 56.3507 30.344 60.2207 25.958L61.9407 27.592C58.5867 31.634 56.6087 37.052 56.6087 42.9C56.6087 55.37 65.3807 65.604 77.7647 65.604C90.1487 65.604 98.9207 55.37 98.9207 42.9C98.9207 30.43 90.1487 20.196 77.7647 20.196C72.0027 20.196 67.0147 22.432 63.3167 26.13L61.5967 24.41C65.7247 20.454 71.4007 18.132 77.7647 18.132C91.3527 18.132 101.501 28.882 101.501 42.9C101.501 56.918 91.3527 67.668 77.7647 67.668ZM77.7647 63.54C66.6707 63.54 58.7587 54.252 58.7587 42.9C58.7587 31.548 66.6707 22.26 77.7647 22.26C88.8587 22.26 96.7707 31.548 96.7707 42.9C96.7707 54.252 88.8587 63.54 77.7647 63.54ZM114.736 42.9C114.736 60.788 127.808 73.86 146.384 73.86C156.79 73.86 165.562 69.216 171.066 62.25V36.02H143.976V45.91H159.886V59.068C155.93 62.164 151.802 63.54 146.384 63.54C134 63.54 126.346 54.252 126.346 42.9C126.346 31.548 134.258 22.26 146.298 22.26C153.006 22.26 158.08 25.27 162.294 29.312L169.346 22.26C163.928 16.326 155.758 11.94 146.212 11.94C128.066 11.94 114.736 25.012 114.736 42.9ZM116.886 42.9C116.886 26.216 129.27 14.004 146.212 14.004C154.382 14.004 161.434 17.272 166.508 22.174L165.132 23.55C160.402 19.164 153.694 16.068 146.212 16.068C130.56 16.068 119.466 27.678 119.466 42.9C119.466 58.208 130.302 69.732 146.384 69.732C152.49 69.732 157.822 68.098 162.294 65.002L163.67 66.378C158.94 69.732 152.92 71.796 146.384 71.796C129.098 71.796 116.886 59.584 116.886 42.9ZM146.298 20.196C139.934 20.196 134.602 22.518 130.818 26.302L129.184 24.582C133.484 20.54 139.418 18.132 146.298 18.132C153.178 18.132 159.198 20.97 163.584 25.012L162.122 26.474C157.908 22.776 152.92 20.196 146.298 20.196ZM121.616 42.9C121.616 36.278 123.852 30.43 127.722 26.044L129.442 27.764C126.088 31.806 124.196 37.138 124.196 42.9C124.196 55.37 132.71 65.604 146.384 65.604C152.318 65.604 157.134 63.884 162.036 60.014V39.976H146.126V38.084H164.444V60.444C159.628 65.088 153.694 67.668 146.384 67.668C131.506 67.668 121.616 56.918 121.616 42.9ZM165.304 65.088L163.928 63.712C164.788 63.024 165.734 62.25 166.508 61.39V38.084H168.916V61.562C167.798 62.852 166.594 63.97 165.304 65.088ZM146.126 43.846V41.954H159.886V43.846H146.126ZM181.904 73H193.514V12.8H181.904V73ZM184.054 70.936V14.864H186.634V70.936H184.054ZM188.784 70.936V14.864H191.364V70.936H188.784ZM207.079 73H227.719C237.265 73 243.543 70.936 248.445 67.324C255.841 61.82 260.399 52.876 260.399 42.9C260.399 32.924 255.841 23.98 248.445 18.476C243.543 14.864 237.265 12.8 227.719 12.8H207.079V73ZM209.229 66.808V14.864H227.805C236.663 14.864 242.597 16.756 247.155 20.11C254.035 25.184 258.249 33.612 258.249 42.9C258.249 49.866 255.841 56.402 251.799 61.304L249.907 59.67C253.519 55.112 255.669 49.178 255.669 42.9C255.669 34.3 251.713 26.474 245.349 21.744C241.135 18.648 235.631 16.928 227.461 16.928H211.809V64.744H229.095C237.007 64.744 242.425 61.992 246.123 57.348C249.133 53.564 250.939 48.404 250.939 42.9C250.939 37.396 249.133 32.236 246.123 28.452C242.425 23.808 237.007 21.056 229.095 21.056H217.915L215.593 18.992H227.547C235.029 18.992 240.103 20.54 243.973 23.378C249.907 27.764 253.519 34.988 253.519 42.9C253.519 50.812 249.907 58.036 243.973 62.422C240.103 65.26 235.029 66.808 227.547 66.808H209.229ZM213.959 62.68V20.196L216.539 22.518V62.68H213.959ZM218.689 62.68V23.12H229.009C236.147 23.12 241.049 25.614 244.403 29.828C247.155 33.268 248.789 37.912 248.789 42.9C248.789 47.888 247.155 52.532 244.403 55.972C241.049 60.186 236.147 62.68 229.009 62.68H218.689ZM209.229 70.936V68.872H227.461C235.631 68.872 241.135 67.152 245.349 64.056C246.467 63.196 247.585 62.25 248.617 61.132L250.423 62.766C249.391 63.884 248.359 64.83 247.155 65.69C242.597 69.044 236.663 70.936 227.805 70.936H209.229ZM260.82 73H272.774L278.536 59.67H301.326L307.002 73H319.3L293.414 12.8H286.706L260.82 73ZM264.002 70.936L288.168 14.864H290.662L274.924 51.414H297.972L298.832 53.478H274.064L266.582 70.936H264.002ZM278.192 49.35L292.554 16.24L316.118 70.936H313.452L292.554 22.002L280.686 49.35H278.192ZM301.928 55.542L291.264 30.516L292.554 27.506L311.13 70.936H308.464L302.788 57.606H278.364L276.988 55.542H301.928ZM283.008 49.35L290.06 33.268L297.026 49.35H283.008ZM268.818 70.936L275.096 56.402L276.644 58.638L271.312 70.936H268.818ZM334.796 73H346.406V45.738L367.046 12.8H354.06L340.73 34.128L327.4 12.8H314.156L334.796 45.738V73ZM336.946 70.936V45.136L318.026 14.864H320.778L338.064 42.384L355.264 14.864H358.016L339.526 44.62V70.936H336.946ZM341.676 70.936V45.05L360.51 14.864H363.176L344.256 45.136V70.936H341.676ZM338.064 38.514L323.272 14.864H326.196L339.526 36.106L338.064 38.514ZM388.14 73.86C400.008 73.86 408.866 66.292 408.866 55.628C408.866 48.06 404.91 43.502 400.008 40.664C391.924 35.934 381.346 34.816 381.346 28.71C381.346 25.356 384.27 22.26 389.946 22.26C394.16 22.26 398.03 23.894 401.212 26.13L406.974 17.96C401.9 14.004 395.794 11.94 389.602 11.94C379.024 11.94 369.736 18.218 369.736 29.14C369.736 35.848 373.434 40.32 378.078 43.072C386.076 47.716 397.256 48.576 397.256 55.714C397.256 60.96 392.612 63.54 387.968 63.54C382.464 63.54 377.132 61.046 373.348 57.692L366.726 65.002C372.746 70.936 379.798 73.86 388.14 73.86ZM387.968 65.604C393.73 65.604 399.406 62.336 399.406 55.714C399.406 49.608 393.558 47.114 387.452 44.878C379.196 41.868 371.886 38.514 371.886 29.14C371.886 19.508 380.142 14.004 389.602 14.004C394.676 14.004 399.664 15.466 404.136 18.39L403.018 20.024C399.148 17.616 394.332 16.068 389.774 16.068C381.088 16.068 374.466 21.056 374.466 28.882C374.466 36.966 381.088 39.718 388.656 42.814C395.364 45.566 401.986 48.232 401.986 55.628C401.986 63.024 395.536 67.668 388.054 67.668C381.862 67.668 376.53 65.604 372.316 61.906L373.52 60.53C377.476 63.454 382.722 65.604 387.968 65.604ZM389.946 20.196C386.592 20.196 384.012 21.142 382.206 22.604L380.572 20.97C382.894 19.164 386.162 18.132 389.86 18.132C394.16 18.132 398.202 19.336 401.814 21.658L400.696 23.292C397.514 21.4 393.902 20.196 389.946 20.196ZM402.932 65.776L401.212 64.056C403.018 61.82 404.136 58.982 404.136 55.628C404.136 46.856 396.826 43.846 389.516 40.836C382.55 37.998 376.616 35.59 376.616 28.882C376.616 26.302 377.476 24.066 379.024 22.346L380.744 24.066C379.712 25.442 379.196 27.076 379.196 28.71C379.196 34.128 384.7 36.45 390.462 38.686C398.976 41.954 406.716 45.222 406.716 55.628C406.716 59.584 405.34 63.11 402.932 65.776ZM388.054 69.732C392.784 69.732 396.912 68.27 399.836 65.604L401.47 67.238C398.116 70.076 393.472 71.796 388.14 71.796C381.002 71.796 374.982 69.56 369.564 64.83L370.854 63.454C375.756 67.582 381.69 69.732 388.054 69.732Z" fill="white"/>
</svg>
