<svg width="46" height="46" viewBox="0 0 46 46" fill="none" xmlns="http://www.w3.org/2000/svg">
<path d="M41.5568 45.2802L26.9205 30.623C25.6136 31.67 24.1108 32.4988 22.4119 33.1095C20.7131 33.7202 18.9053 34.0256 16.9886 34.0256C12.2405 34.0256 8.2225 32.3793 4.93455 29.0867C1.64485 25.7923 0 21.7677 0 17.0128C0 12.2579 1.64485 8.23332 4.93455 4.93895C8.2225 1.64632 12.2405 0 16.9886 0C21.7367 0 25.7556 1.64632 29.0453 4.93895C32.3333 8.23332 33.9773 12.2579 33.9773 17.0128C33.9773 18.9322 33.6723 20.7425 33.0625 22.4438C32.4526 24.1451 31.625 25.6501 30.5795 26.9587L45.2813 41.6814C45.7604 42.1612 46 42.7501 46 43.4481C46 44.146 45.7386 44.7568 45.2159 45.2802C44.7367 45.7601 44.1269 46 43.3864 46C42.6458 46 42.036 45.7601 41.5568 45.2802ZM16.9886 28.7909C20.2557 28.7909 23.0331 27.6462 25.3209 25.3569C27.607 23.0659 28.75 20.2845 28.75 17.0128C28.75 13.7411 27.607 10.9597 25.3209 8.66868C23.0331 6.37936 20.2557 5.23471 16.9886 5.23471C13.7216 5.23471 10.9442 6.37936 8.65636 8.66868C6.3703 10.9597 5.22727 13.7411 5.22727 17.0128C5.22727 20.2845 6.3703 23.0659 8.65636 25.3569C10.9442 27.6462 13.7216 28.7909 16.9886 28.7909Z" fill="current"/>
</svg>
